Coordinates
version=1
nRows=14
nColumns=24
inDegrees=yes

Units are S.I. units (second, meters, Newtons, ...)
Angles are in degrees.

endheader
time	pelvis_tilt	pelvis_list	pelvis_rotation	pelvis_tx	pelvis_ty	pelvis_tz	hip_flexion_r	hip_adduction_r	hip_rotation_r	knee_angle_r	ankle_angle_r	subtalar_angle_r	mtp_angle_r	hip_flexion_l	hip_adduction_l	hip_rotation_l	knee_angle_l	ankle_angle_l	subtalar_angle_l	mtp_angle_l	lumbar_extension	lumbar_bending	lumbar_rotation
      3.82000000	     23.46278780	     -4.75164925	      7.58826223	      0.25295153	      1.03185051	      0.01569738	    -15.17860461	      7.40125755	     -9.34276748	    -13.72549940	      9.10957382	    -10.79744811	      7.09540630	     -8.98365005	    -11.94074142	      0.55642083	    -58.93397653	     -1.86491756	    -14.47453967	     42.48742585	    -38.26396458	      6.55051574	      1.51775649
      3.82500000	     23.49327152	     -4.66176231	      7.58274676	      0.25790217	      1.03236137	      0.01611876	    -15.67491948	      7.40253279	     -9.25464159	    -13.46297466	      9.26776574	    -10.81972876	      7.10156936	     -8.34377418	    -11.81505609	      0.52668933	    -59.02275059	     -1.51864156	    -14.63168658	     42.48098071	    -38.32927271	      6.44173335	      1.55255120
      3.83000000	     23.50594974	     -4.57168830	      7.55884618	      0.26286670	      1.03284642	      0.01654155	    -16.15155500	      7.39424676	     -9.17185060	    -13.20270589	      9.40242471	    -10.84538295	      7.10106704	     -7.71097630	    -11.67604603	      0.48125210	    -59.03586395	     -1.16612045	    -14.74569818	     42.45707197	    -38.37570531	      6.31943870	      1.59829852
      3.83500000	     23.52148875	     -4.47949738	      7.51902550	      0.26785130	      1.03332251	      0.01695646	    -16.63554876	      7.37727567	     -9.07489538	    -12.93919557	      9.53631702	    -10.87564264	      7.09560663	     -7.11147852	    -11.52828770	      0.41167242	    -58.96967580	     -0.81645627	    -14.81329021	     42.41237891	    -38.42605215	      6.18699830	      1.64985786
      3.84000000	     23.58795635	     -4.38449377	      7.41578398	      0.27285623	      1.03385998	      0.01747843	    -17.19110621	      7.35592095	     -8.86652004	    -12.64761604	      9.65740301	    -11.05048435	      6.52963466	     -6.62212195	    -11.37909570	      0.25873949	    -58.82632676	     -0.25110467	    -14.55559585	     39.83719590	    -38.53346272	      6.01236427	      1.76348518
      3.84500000	     23.61397394	     -4.29388409	      7.32901398	      0.27787557	      1.03430767	      0.01791850	    -17.68690311	      7.31809366	     -8.76335655	    -12.39491863	      9.83627401	    -10.95660144	      6.52908155	     -6.10023694	    -11.22678211	      0.12707663	    -58.60383244	      0.11886691	    -14.45368269	     39.80013163	    -38.59551940	      5.85294170	      1.85400665
      3.85000000	     23.67458894	     -4.18398056	      7.20935428	      0.28291466	      1.03480740	      0.01838486	    -18.23656772	      7.25742962	     -8.60677409	    -12.11642586	      9.97111327	    -10.98172349	      6.49896737	     -5.66611203	    -11.05109434	     -0.05423693	    -58.27580378	      0.43887206	    -14.39856962	     39.68936928	    -38.69564053	      5.65894502	      1.95796359
      3.85500000	     23.75924650	     -4.07515650	      7.06847590	      0.28796282	      1.03532312	      0.01887558	    -18.82219176	      7.19311223	     -8.40615394	    -11.81932525	     10.08479867	    -10.99435633	      6.44240164	     -5.29349842	    -10.87870664	     -0.27179277	    -57.86413684	      0.71802080	    -14.32688661	     39.47254544	    -38.82221426	      5.45330932	      2.06873188
      3.86000000	     23.83966724	     -3.95855866	      6.92489913	      0.29300490	      1.03581421	      0.01935187	    -19.39863669	      7.11421397	     -8.22340366	    -11.53398041	     10.21144607	    -11.01370586	      6.37897335	     -4.94348113	    -10.69418011	     -0.49610306	    -57.37536021	      0.99941671	    -14.24465275	     39.22163176	    -38.94528988	      5.23803092	      2.17834382
      3.86500000	     23.87181322	     -3.84501865	      6.79427322	      0.29801059	      1.03618603	      0.01980226	    -19.90505053	      7.03248039	     -8.08492521	    -11.27566937	     10.35716794	    -11.05534816	      6.33735698	     -4.54138677	    -10.50757820	     -0.71218781	    -56.84755840	      1.29353967	    -14.19349966	     39.04851636	    -39.02093521	      5.02854552	      2.26603756
      3.87000000	     24.00283259	     -3.70114922	      6.67964567	      0.30306575	      1.03670934	      0.02019683	    -20.56600722	      6.93657898	     -7.91914679	    -10.93893545	     10.48736586	    -11.06710473	      5.74284732	     -4.29608951	    -10.29272882	     -0.92465543	    -56.21787675	      1.64373725	    -14.01254611	     36.75157417	    -39.19489573	      4.80939201	      2.30197986
      3.87500000	     24.02993213	     -3.63113517	      6.48880069	      0.30806365	      1.03702655	      0.02070765	    -21.05740245	      6.86747062	     -7.68810174	    -10.69160493	     10.63958167	    -11.00690650	      5.72720213	     -3.95201063	    -10.16099863	     -1.23624276	    -55.54492874	      1.90903177	    -13.82876259	     36.68468196	    -39.26568728	      4.60428626	      2.48092411
      3.88000000	     24.10224812	     -3.51747611	      6.32999080	      0.31308710	      1.03740781	      0.02116987	    -21.62610527	      6.77189284	     -7.48793737	    -10.39832864	     10.73959043	    -11.03251998	      5.68163636	     -3.69378029	     -9.98238268	     -1.52240777	    -54.76883012	      2.09519485	    -13.76652392	     36.52480173	    -39.38132473	      4.37830580	      2.57609076
      3.88500000	     24.17280582	     -3.40334441	      6.17594815	      0.31807725	      1.03773504	      0.02159794	    -22.18556901	      6.67058554	     -7.30330304	    -10.11499968	     10.85813443	    -11.04058696	      5.63225328	     -3.45205272	     -9.80237713	     -1.81217530	    -53.93176994	      2.26814295	    -13.69046639	     36.32774600	    -39.49894095	      4.15623237	      2.66597591
